<mxfile host="app.diagrams.net" modified="2021-06-13T08:00:42.152Z" agent="5.0 (Windows NT 10.0; Win64; x64) AppleWebKit/537.36 (KHTML, like Gecko) Chrome/91.0.4472.77 Safari/537.36" etag="4FDpiMbH8tjpsQq1XIAJ" version="14.7.7" type="github">
  <diagram id="C5RBs43oDa-KdzZeNtuy" name="Page-1">
    <mxGraphModel dx="1673" dy="3234" grid="1" gridSize="10" guides="1" tooltips="1" connect="1" arrows="1" fold="1" page="1" pageScale="1" pageWidth="827" pageHeight="1169" math="0" shadow="0">
      <root>
        <mxCell id="WIyWlLk6GJQsqaUBKTNV-0" />
        <mxCell id="WIyWlLk6GJQsqaUBKTNV-1" parent="WIyWlLk6GJQsqaUBKTNV-0" />
        <mxCell id="WIyWlLk6GJQsqaUBKTNV-2" value="" style="rounded=0;html=1;jettySize=auto;orthogonalLoop=1;fontSize=11;endArrow=block;endFill=0;endSize=8;strokeWidth=1;shadow=0;labelBackgroundColor=none;edgeStyle=orthogonalEdgeStyle;" parent="WIyWlLk6GJQsqaUBKTNV-1" edge="1">
          <mxGeometry relative="1" as="geometry">
            <mxPoint x="100" y="-2190" as="sourcePoint" />
            <mxPoint x="100" y="-2140" as="targetPoint" />
          </mxGeometry>
        </mxCell>
        <mxCell id="WIyWlLk6GJQsqaUBKTNV-9" value="Yes" style="edgeStyle=orthogonalEdgeStyle;rounded=0;html=1;jettySize=auto;orthogonalLoop=1;fontSize=11;endArrow=block;endFill=0;endSize=8;strokeWidth=1;shadow=0;labelBackgroundColor=none;" parent="WIyWlLk6GJQsqaUBKTNV-1" source="WIyWlLk6GJQsqaUBKTNV-10" target="WIyWlLk6GJQsqaUBKTNV-12" edge="1">
          <mxGeometry y="10" relative="1" as="geometry">
            <mxPoint as="offset" />
          </mxGeometry>
        </mxCell>
        <mxCell id="TEBMtnwVVKYRT9nspLiI-115" style="edgeStyle=orthogonalEdgeStyle;rounded=0;orthogonalLoop=1;jettySize=auto;html=1;entryX=0.583;entryY=0;entryDx=0;entryDy=0;entryPerimeter=0;endArrow=block;endFill=0;" edge="1" parent="WIyWlLk6GJQsqaUBKTNV-1" source="WIyWlLk6GJQsqaUBKTNV-10" target="TEBMtnwVVKYRT9nspLiI-104">
          <mxGeometry relative="1" as="geometry" />
        </mxCell>
        <mxCell id="WIyWlLk6GJQsqaUBKTNV-10" value="Между 0 и 999 и явл. числом?" style="rhombus;whiteSpace=wrap;html=1;shadow=0;fontFamily=Helvetica;fontSize=12;align=center;strokeWidth=1;spacing=6;spacingTop=-4;" parent="WIyWlLk6GJQsqaUBKTNV-1" vertex="1">
          <mxGeometry x="20" y="-2040" width="160" height="90" as="geometry" />
        </mxCell>
        <mxCell id="TEBMtnwVVKYRT9nspLiI-113" style="edgeStyle=orthogonalEdgeStyle;rounded=0;orthogonalLoop=1;jettySize=auto;html=1;endArrow=block;endFill=0;" edge="1" parent="WIyWlLk6GJQsqaUBKTNV-1" source="WIyWlLk6GJQsqaUBKTNV-12" target="TEBMtnwVVKYRT9nspLiI-4">
          <mxGeometry relative="1" as="geometry" />
        </mxCell>
        <mxCell id="WIyWlLk6GJQsqaUBKTNV-12" value="Разбиваем число на компоненты с помощью разных вариантов деления" style="rounded=0;whiteSpace=wrap;html=1;fontSize=12;glass=0;strokeWidth=1;shadow=0;" parent="WIyWlLk6GJQsqaUBKTNV-1" vertex="1">
          <mxGeometry x="264" y="-2015" width="240" height="40" as="geometry" />
        </mxCell>
        <mxCell id="TEBMtnwVVKYRT9nspLiI-112" style="edgeStyle=orthogonalEdgeStyle;rounded=0;orthogonalLoop=1;jettySize=auto;html=1;endArrow=block;endFill=0;" edge="1" parent="WIyWlLk6GJQsqaUBKTNV-1" source="TEBMtnwVVKYRT9nspLiI-4" target="TEBMtnwVVKYRT9nspLiI-106">
          <mxGeometry relative="1" as="geometry" />
        </mxCell>
        <mxCell id="TEBMtnwVVKYRT9nspLiI-4" value="Считаем сумму и произведение" style="rounded=0;whiteSpace=wrap;html=1;fontSize=12;glass=0;strokeWidth=1;shadow=0;" vertex="1" parent="WIyWlLk6GJQsqaUBKTNV-1">
          <mxGeometry x="264" y="-1940" width="240" height="40" as="geometry" />
        </mxCell>
        <mxCell id="TEBMtnwVVKYRT9nspLiI-102" value="" style="edgeStyle=orthogonalEdgeStyle;rounded=0;orthogonalLoop=1;jettySize=auto;html=1;endArrow=block;endFill=0;" edge="1" parent="WIyWlLk6GJQsqaUBKTNV-1" source="TEBMtnwVVKYRT9nspLiI-8" target="TEBMtnwVVKYRT9nspLiI-101">
          <mxGeometry relative="1" as="geometry" />
        </mxCell>
        <mxCell id="TEBMtnwVVKYRT9nspLiI-8" value="Задание 1" style="rounded=1;whiteSpace=wrap;html=1;fontSize=12;glass=0;strokeWidth=1;shadow=0;" vertex="1" parent="WIyWlLk6GJQsqaUBKTNV-1">
          <mxGeometry x="40" y="-2330" width="120" height="40" as="geometry" />
        </mxCell>
        <mxCell id="TEBMtnwVVKYRT9nspLiI-90" value="" style="edgeStyle=orthogonalEdgeStyle;rounded=0;orthogonalLoop=1;jettySize=auto;html=1;endArrow=block;endFill=0;" edge="1" parent="WIyWlLk6GJQsqaUBKTNV-1" source="TEBMtnwVVKYRT9nspLiI-11">
          <mxGeometry relative="1" as="geometry">
            <mxPoint x="135" y="-990" as="targetPoint" />
          </mxGeometry>
        </mxCell>
        <mxCell id="TEBMtnwVVKYRT9nspLiI-11" value="Задание 9" style="rounded=1;whiteSpace=wrap;html=1;fontSize=12;glass=0;strokeWidth=1;shadow=0;" vertex="1" parent="WIyWlLk6GJQsqaUBKTNV-1">
          <mxGeometry x="75" y="-1090" width="120" height="40" as="geometry" />
        </mxCell>
        <mxCell id="TEBMtnwVVKYRT9nspLiI-14" value="" style="edgeStyle=orthogonalEdgeStyle;rounded=0;orthogonalLoop=1;jettySize=auto;html=1;exitX=1;exitY=0.5;exitDx=0;exitDy=0;" edge="1" parent="WIyWlLk6GJQsqaUBKTNV-1" source="TEBMtnwVVKYRT9nspLiI-91" target="TEBMtnwVVKYRT9nspLiI-13">
          <mxGeometry relative="1" as="geometry">
            <mxPoint x="200" y="-970" as="sourcePoint" />
          </mxGeometry>
        </mxCell>
        <mxCell id="TEBMtnwVVKYRT9nspLiI-16" value="No" style="edgeStyle=orthogonalEdgeStyle;rounded=0;orthogonalLoop=1;jettySize=auto;html=1;endArrow=block;endFill=0;" edge="1" parent="WIyWlLk6GJQsqaUBKTNV-1" source="TEBMtnwVVKYRT9nspLiI-13" target="TEBMtnwVVKYRT9nspLiI-15">
          <mxGeometry relative="1" as="geometry" />
        </mxCell>
        <mxCell id="TEBMtnwVVKYRT9nspLiI-21" value="Yes" style="edgeStyle=orthogonalEdgeStyle;rounded=0;orthogonalLoop=1;jettySize=auto;html=1;endArrow=block;endFill=0;" edge="1" parent="WIyWlLk6GJQsqaUBKTNV-1" source="TEBMtnwVVKYRT9nspLiI-13">
          <mxGeometry relative="1" as="geometry">
            <mxPoint x="430" y="-970" as="targetPoint" />
          </mxGeometry>
        </mxCell>
        <mxCell id="TEBMtnwVVKYRT9nspLiI-13" value="c&amp;lt;a&amp;lt;b or b&amp;lt;a&amp;lt;c" style="rhombus;whiteSpace=wrap;html=1;rounded=1;shadow=0;strokeWidth=1;glass=0;" vertex="1" parent="WIyWlLk6GJQsqaUBKTNV-1">
          <mxGeometry x="200" y="-1030" width="140" height="120" as="geometry" />
        </mxCell>
        <mxCell id="TEBMtnwVVKYRT9nspLiI-23" value="Yes" style="edgeStyle=orthogonalEdgeStyle;rounded=0;orthogonalLoop=1;jettySize=auto;html=1;endArrow=block;endFill=0;" edge="1" parent="WIyWlLk6GJQsqaUBKTNV-1" source="TEBMtnwVVKYRT9nspLiI-15">
          <mxGeometry relative="1" as="geometry">
            <mxPoint x="430" y="-830" as="targetPoint" />
          </mxGeometry>
        </mxCell>
        <mxCell id="TEBMtnwVVKYRT9nspLiI-25" value="No" style="edgeStyle=orthogonalEdgeStyle;rounded=0;orthogonalLoop=1;jettySize=auto;html=1;endArrow=block;endFill=0;" edge="1" parent="WIyWlLk6GJQsqaUBKTNV-1" source="TEBMtnwVVKYRT9nspLiI-15" target="TEBMtnwVVKYRT9nspLiI-24">
          <mxGeometry relative="1" as="geometry" />
        </mxCell>
        <mxCell id="TEBMtnwVVKYRT9nspLiI-15" value="a&amp;lt;b&amp;lt;c or c&amp;lt;b&amp;lt;a" style="rhombus;whiteSpace=wrap;html=1;rounded=1;shadow=0;strokeWidth=1;glass=0;" vertex="1" parent="WIyWlLk6GJQsqaUBKTNV-1">
          <mxGeometry x="200" y="-890" width="140" height="120" as="geometry" />
        </mxCell>
        <mxCell id="TEBMtnwVVKYRT9nspLiI-27" value="Yes" style="edgeStyle=orthogonalEdgeStyle;rounded=0;orthogonalLoop=1;jettySize=auto;html=1;endArrow=block;endFill=0;" edge="1" parent="WIyWlLk6GJQsqaUBKTNV-1" source="TEBMtnwVVKYRT9nspLiI-24">
          <mxGeometry relative="1" as="geometry">
            <mxPoint x="430" y="-680" as="targetPoint" />
          </mxGeometry>
        </mxCell>
        <mxCell id="TEBMtnwVVKYRT9nspLiI-29" value="No" style="edgeStyle=orthogonalEdgeStyle;rounded=0;orthogonalLoop=1;jettySize=auto;html=1;endArrow=block;endFill=0;" edge="1" parent="WIyWlLk6GJQsqaUBKTNV-1" source="TEBMtnwVVKYRT9nspLiI-24">
          <mxGeometry relative="1" as="geometry">
            <mxPoint x="270.0588235294117" y="-590" as="targetPoint" />
          </mxGeometry>
        </mxCell>
        <mxCell id="TEBMtnwVVKYRT9nspLiI-24" value="a&amp;lt;c&amp;lt;b or b&amp;lt;c&amp;lt;a" style="rhombus;whiteSpace=wrap;html=1;rounded=1;shadow=0;strokeWidth=1;glass=0;" vertex="1" parent="WIyWlLk6GJQsqaUBKTNV-1">
          <mxGeometry x="200" y="-740" width="140" height="120" as="geometry" />
        </mxCell>
        <mxCell id="TEBMtnwVVKYRT9nspLiI-32" value="" style="edgeStyle=orthogonalEdgeStyle;rounded=0;orthogonalLoop=1;jettySize=auto;html=1;endArrow=block;endFill=0;" edge="1" parent="WIyWlLk6GJQsqaUBKTNV-1" source="TEBMtnwVVKYRT9nspLiI-30">
          <mxGeometry relative="1" as="geometry">
            <mxPoint x="220" y="-2115" as="targetPoint" />
          </mxGeometry>
        </mxCell>
        <mxCell id="TEBMtnwVVKYRT9nspLiI-114" style="edgeStyle=orthogonalEdgeStyle;rounded=0;orthogonalLoop=1;jettySize=auto;html=1;entryX=0.5;entryY=0;entryDx=0;entryDy=0;endArrow=block;endFill=0;" edge="1" parent="WIyWlLk6GJQsqaUBKTNV-1" source="TEBMtnwVVKYRT9nspLiI-30" target="WIyWlLk6GJQsqaUBKTNV-10">
          <mxGeometry relative="1" as="geometry" />
        </mxCell>
        <mxCell id="TEBMtnwVVKYRT9nspLiI-30" value="Не число?" style="rhombus;whiteSpace=wrap;html=1;shadow=0;fontFamily=Helvetica;fontSize=12;align=center;strokeWidth=1;spacing=6;spacingTop=-4;" vertex="1" parent="WIyWlLk6GJQsqaUBKTNV-1">
          <mxGeometry x="50" y="-2140" width="100" height="50" as="geometry" />
        </mxCell>
        <mxCell id="TEBMtnwVVKYRT9nspLiI-84" value="" style="edgeStyle=orthogonalEdgeStyle;rounded=0;orthogonalLoop=1;jettySize=auto;html=1;endArrow=block;endFill=0;" edge="1" parent="WIyWlLk6GJQsqaUBKTNV-1" source="TEBMtnwVVKYRT9nspLiI-34" target="TEBMtnwVVKYRT9nspLiI-83">
          <mxGeometry relative="1" as="geometry" />
        </mxCell>
        <mxCell id="TEBMtnwVVKYRT9nspLiI-34" value="Задание 8" style="rounded=1;whiteSpace=wrap;html=1;fontSize=12;glass=0;strokeWidth=1;shadow=0;" vertex="1" parent="WIyWlLk6GJQsqaUBKTNV-1">
          <mxGeometry x="70" y="10" width="120" height="40" as="geometry" />
        </mxCell>
        <mxCell id="TEBMtnwVVKYRT9nspLiI-60" value="" style="edgeStyle=orthogonalEdgeStyle;rounded=0;orthogonalLoop=1;jettySize=auto;html=1;endArrow=block;endFill=0;" edge="1" parent="WIyWlLk6GJQsqaUBKTNV-1">
          <mxGeometry relative="1" as="geometry">
            <mxPoint x="180" y="130" as="sourcePoint" />
            <mxPoint x="210" y="130" as="targetPoint" />
          </mxGeometry>
        </mxCell>
        <mxCell id="TEBMtnwVVKYRT9nspLiI-76" value="" style="edgeStyle=orthogonalEdgeStyle;rounded=0;orthogonalLoop=1;jettySize=auto;html=1;endArrow=block;endFill=0;" edge="1" parent="WIyWlLk6GJQsqaUBKTNV-1" source="TEBMtnwVVKYRT9nspLiI-73">
          <mxGeometry relative="1" as="geometry">
            <mxPoint x="630" y="130" as="targetPoint" />
          </mxGeometry>
        </mxCell>
        <mxCell id="TEBMtnwVVKYRT9nspLiI-78" value="" style="edgeStyle=orthogonalEdgeStyle;rounded=0;orthogonalLoop=1;jettySize=auto;html=1;endArrow=block;endFill=0;" edge="1" parent="WIyWlLk6GJQsqaUBKTNV-1" source="TEBMtnwVVKYRT9nspLiI-73">
          <mxGeometry relative="1" as="geometry">
            <mxPoint x="475" y="200" as="targetPoint" />
          </mxGeometry>
        </mxCell>
        <mxCell id="TEBMtnwVVKYRT9nspLiI-73" value="Остаток от деления = 0?" style="rhombus;whiteSpace=wrap;html=1;rounded=1;shadow=0;strokeWidth=1;glass=0;" vertex="1" parent="WIyWlLk6GJQsqaUBKTNV-1">
          <mxGeometry x="370" y="90" width="210" height="80" as="geometry" />
        </mxCell>
        <mxCell id="TEBMtnwVVKYRT9nspLiI-116" style="edgeStyle=orthogonalEdgeStyle;rounded=0;orthogonalLoop=1;jettySize=auto;html=1;entryX=0.047;entryY=0.494;entryDx=0;entryDy=0;entryPerimeter=0;endArrow=block;endFill=0;" edge="1" parent="WIyWlLk6GJQsqaUBKTNV-1" source="TEBMtnwVVKYRT9nspLiI-80" target="TEBMtnwVVKYRT9nspLiI-73">
          <mxGeometry relative="1" as="geometry" />
        </mxCell>
        <mxCell id="TEBMtnwVVKYRT9nspLiI-80" value="&#xa;&#xa;&lt;span style=&quot;color: rgb(0, 0, 0); font-family: helvetica; font-size: 12px; font-style: normal; font-weight: 400; letter-spacing: normal; text-align: center; text-indent: 0px; text-transform: none; word-spacing: 0px; background-color: rgb(248, 249, 250); display: inline; float: none;&quot;&gt;Находим остаток от деления на 4&lt;/span&gt;&#xa;&#xa;" style="rounded=0;whiteSpace=wrap;html=1;" vertex="1" parent="WIyWlLk6GJQsqaUBKTNV-1">
          <mxGeometry x="210" y="100" width="120" height="60" as="geometry" />
        </mxCell>
        <mxCell id="TEBMtnwVVKYRT9nspLiI-88" value="" style="edgeStyle=orthogonalEdgeStyle;rounded=0;orthogonalLoop=1;jettySize=auto;html=1;endArrow=block;endFill=0;" edge="1" parent="WIyWlLk6GJQsqaUBKTNV-1" source="TEBMtnwVVKYRT9nspLiI-81" target="TEBMtnwVVKYRT9nspLiI-87">
          <mxGeometry relative="1" as="geometry" />
        </mxCell>
        <mxCell id="TEBMtnwVVKYRT9nspLiI-81" value="&lt;span&gt;Високосный&lt;/span&gt;" style="shape=parallelogram;perimeter=parallelogramPerimeter;whiteSpace=wrap;html=1;fixedSize=1;" vertex="1" parent="WIyWlLk6GJQsqaUBKTNV-1">
          <mxGeometry x="620" y="100" width="120" height="60" as="geometry" />
        </mxCell>
        <mxCell id="TEBMtnwVVKYRT9nspLiI-89" value="" style="edgeStyle=orthogonalEdgeStyle;rounded=0;orthogonalLoop=1;jettySize=auto;html=1;endArrow=block;endFill=0;" edge="1" parent="WIyWlLk6GJQsqaUBKTNV-1" source="TEBMtnwVVKYRT9nspLiI-82" target="TEBMtnwVVKYRT9nspLiI-87">
          <mxGeometry relative="1" as="geometry" />
        </mxCell>
        <mxCell id="TEBMtnwVVKYRT9nspLiI-82" value="&lt;span&gt;Не Високосный&lt;/span&gt;" style="shape=parallelogram;perimeter=parallelogramPerimeter;whiteSpace=wrap;html=1;fixedSize=1;" vertex="1" parent="WIyWlLk6GJQsqaUBKTNV-1">
          <mxGeometry x="414" y="200" width="120" height="60" as="geometry" />
        </mxCell>
        <mxCell id="TEBMtnwVVKYRT9nspLiI-83" value="Вводим год" style="shape=parallelogram;perimeter=parallelogramPerimeter;whiteSpace=wrap;html=1;fixedSize=1;" vertex="1" parent="WIyWlLk6GJQsqaUBKTNV-1">
          <mxGeometry x="70" y="100" width="120" height="60" as="geometry" />
        </mxCell>
        <mxCell id="TEBMtnwVVKYRT9nspLiI-87" value="Конец задания" style="rounded=1;whiteSpace=wrap;html=1;" vertex="1" parent="WIyWlLk6GJQsqaUBKTNV-1">
          <mxGeometry x="620" y="200" width="120" height="60" as="geometry" />
        </mxCell>
        <mxCell id="TEBMtnwVVKYRT9nspLiI-91" value="Вводим год" style="shape=parallelogram;perimeter=parallelogramPerimeter;whiteSpace=wrap;html=1;fixedSize=1;" vertex="1" parent="WIyWlLk6GJQsqaUBKTNV-1">
          <mxGeometry x="75" y="-1000" width="120" height="60" as="geometry" />
        </mxCell>
        <mxCell id="TEBMtnwVVKYRT9nspLiI-97" style="edgeStyle=orthogonalEdgeStyle;rounded=0;orthogonalLoop=1;jettySize=auto;html=1;endArrow=block;endFill=0;" edge="1" parent="WIyWlLk6GJQsqaUBKTNV-1" source="TEBMtnwVVKYRT9nspLiI-92" target="TEBMtnwVVKYRT9nspLiI-96">
          <mxGeometry relative="1" as="geometry" />
        </mxCell>
        <mxCell id="TEBMtnwVVKYRT9nspLiI-92" value="Первое посередине" style="shape=parallelogram;perimeter=parallelogramPerimeter;whiteSpace=wrap;html=1;fixedSize=1;" vertex="1" parent="WIyWlLk6GJQsqaUBKTNV-1">
          <mxGeometry x="414" y="-1000" width="166" height="60" as="geometry" />
        </mxCell>
        <mxCell id="TEBMtnwVVKYRT9nspLiI-98" style="edgeStyle=orthogonalEdgeStyle;rounded=0;orthogonalLoop=1;jettySize=auto;html=1;endArrow=block;endFill=0;" edge="1" parent="WIyWlLk6GJQsqaUBKTNV-1" source="TEBMtnwVVKYRT9nspLiI-93" target="TEBMtnwVVKYRT9nspLiI-96">
          <mxGeometry relative="1" as="geometry">
            <mxPoint x="650" y="-830" as="targetPoint" />
          </mxGeometry>
        </mxCell>
        <mxCell id="TEBMtnwVVKYRT9nspLiI-93" value="Второе посередине" style="shape=parallelogram;perimeter=parallelogramPerimeter;whiteSpace=wrap;html=1;fixedSize=1;" vertex="1" parent="WIyWlLk6GJQsqaUBKTNV-1">
          <mxGeometry x="415" y="-860" width="165" height="60" as="geometry" />
        </mxCell>
        <mxCell id="TEBMtnwVVKYRT9nspLiI-99" style="edgeStyle=orthogonalEdgeStyle;rounded=0;orthogonalLoop=1;jettySize=auto;html=1;endArrow=block;endFill=0;" edge="1" parent="WIyWlLk6GJQsqaUBKTNV-1" source="TEBMtnwVVKYRT9nspLiI-94" target="TEBMtnwVVKYRT9nspLiI-96">
          <mxGeometry relative="1" as="geometry">
            <mxPoint x="650" y="-680" as="targetPoint" />
          </mxGeometry>
        </mxCell>
        <mxCell id="TEBMtnwVVKYRT9nspLiI-94" value="Третье посередине" style="shape=parallelogram;perimeter=parallelogramPerimeter;whiteSpace=wrap;html=1;fixedSize=1;" vertex="1" parent="WIyWlLk6GJQsqaUBKTNV-1">
          <mxGeometry x="415" y="-710" width="165" height="60" as="geometry" />
        </mxCell>
        <mxCell id="TEBMtnwVVKYRT9nspLiI-100" style="edgeStyle=orthogonalEdgeStyle;rounded=0;orthogonalLoop=1;jettySize=auto;html=1;endArrow=block;endFill=0;" edge="1" parent="WIyWlLk6GJQsqaUBKTNV-1" source="TEBMtnwVVKYRT9nspLiI-95" target="TEBMtnwVVKYRT9nspLiI-96">
          <mxGeometry relative="1" as="geometry" />
        </mxCell>
        <mxCell id="TEBMtnwVVKYRT9nspLiI-95" value="ERROR" style="shape=parallelogram;perimeter=parallelogramPerimeter;whiteSpace=wrap;html=1;fixedSize=1;" vertex="1" parent="WIyWlLk6GJQsqaUBKTNV-1">
          <mxGeometry x="210" y="-590" width="120" height="60" as="geometry" />
        </mxCell>
        <mxCell id="TEBMtnwVVKYRT9nspLiI-96" value="Конец задания" style="rounded=1;whiteSpace=wrap;html=1;" vertex="1" parent="WIyWlLk6GJQsqaUBKTNV-1">
          <mxGeometry x="590" y="-590" width="120" height="60" as="geometry" />
        </mxCell>
        <mxCell id="TEBMtnwVVKYRT9nspLiI-101" value="Вводим число" style="shape=parallelogram;perimeter=parallelogramPerimeter;whiteSpace=wrap;html=1;fixedSize=1;" vertex="1" parent="WIyWlLk6GJQsqaUBKTNV-1">
          <mxGeometry x="40" y="-2250" width="120" height="60" as="geometry" />
        </mxCell>
        <mxCell id="TEBMtnwVVKYRT9nspLiI-111" style="edgeStyle=orthogonalEdgeStyle;rounded=0;orthogonalLoop=1;jettySize=auto;html=1;entryX=0.5;entryY=0;entryDx=0;entryDy=0;endArrow=block;endFill=0;" edge="1" parent="WIyWlLk6GJQsqaUBKTNV-1" source="TEBMtnwVVKYRT9nspLiI-104" target="TEBMtnwVVKYRT9nspLiI-108">
          <mxGeometry relative="1" as="geometry" />
        </mxCell>
        <mxCell id="TEBMtnwVVKYRT9nspLiI-104" value="ERROR" style="shape=parallelogram;perimeter=parallelogramPerimeter;whiteSpace=wrap;html=1;fixedSize=1;" vertex="1" parent="WIyWlLk6GJQsqaUBKTNV-1">
          <mxGeometry x="30" y="-1900" width="120" height="60" as="geometry" />
        </mxCell>
        <mxCell id="TEBMtnwVVKYRT9nspLiI-109" style="edgeStyle=orthogonalEdgeStyle;rounded=0;orthogonalLoop=1;jettySize=auto;html=1;endArrow=block;endFill=0;" edge="1" parent="WIyWlLk6GJQsqaUBKTNV-1" source="TEBMtnwVVKYRT9nspLiI-105" target="TEBMtnwVVKYRT9nspLiI-108">
          <mxGeometry relative="1" as="geometry" />
        </mxCell>
        <mxCell id="TEBMtnwVVKYRT9nspLiI-105" value="ERROR" style="shape=parallelogram;perimeter=parallelogramPerimeter;whiteSpace=wrap;html=1;fixedSize=1;" vertex="1" parent="WIyWlLk6GJQsqaUBKTNV-1">
          <mxGeometry x="150" y="-2145" width="120" height="60" as="geometry" />
        </mxCell>
        <mxCell id="TEBMtnwVVKYRT9nspLiI-110" style="edgeStyle=orthogonalEdgeStyle;rounded=0;orthogonalLoop=1;jettySize=auto;html=1;endArrow=block;endFill=0;" edge="1" parent="WIyWlLk6GJQsqaUBKTNV-1" source="TEBMtnwVVKYRT9nspLiI-106" target="TEBMtnwVVKYRT9nspLiI-108">
          <mxGeometry relative="1" as="geometry" />
        </mxCell>
        <mxCell id="TEBMtnwVVKYRT9nspLiI-106" value="Выводим сумму и прозиведение" style="shape=parallelogram;perimeter=parallelogramPerimeter;whiteSpace=wrap;html=1;fixedSize=1;" vertex="1" parent="WIyWlLk6GJQsqaUBKTNV-1">
          <mxGeometry x="309" y="-1840" width="150" height="60" as="geometry" />
        </mxCell>
        <mxCell id="TEBMtnwVVKYRT9nspLiI-108" value="Конец задания" style="rounded=1;whiteSpace=wrap;html=1;glass=0;" vertex="1" parent="WIyWlLk6GJQsqaUBKTNV-1">
          <mxGeometry x="150" y="-1783" width="120" height="60" as="geometry" />
        </mxCell>
        <mxCell id="TEBMtnwVVKYRT9nspLiI-117" value="" style="edgeStyle=orthogonalEdgeStyle;rounded=0;orthogonalLoop=1;jettySize=auto;html=1;endArrow=block;endFill=0;" edge="1" parent="WIyWlLk6GJQsqaUBKTNV-1" source="TEBMtnwVVKYRT9nspLiI-118" target="TEBMtnwVVKYRT9nspLiI-129">
          <mxGeometry relative="1" as="geometry" />
        </mxCell>
        <mxCell id="TEBMtnwVVKYRT9nspLiI-118" value="Задания 5,6" style="rounded=1;whiteSpace=wrap;html=1;fontSize=12;glass=0;strokeWidth=1;shadow=0;" vertex="1" parent="WIyWlLk6GJQsqaUBKTNV-1">
          <mxGeometry x="70" y="1200" width="120" height="40" as="geometry" />
        </mxCell>
        <mxCell id="TEBMtnwVVKYRT9nspLiI-139" value="Задание 5" style="edgeStyle=orthogonalEdgeStyle;rounded=0;orthogonalLoop=1;jettySize=auto;html=1;endArrow=block;endFill=0;" edge="1" parent="WIyWlLk6GJQsqaUBKTNV-1" source="TEBMtnwVVKYRT9nspLiI-129" target="TEBMtnwVVKYRT9nspLiI-138">
          <mxGeometry relative="1" as="geometry" />
        </mxCell>
        <mxCell id="TEBMtnwVVKYRT9nspLiI-141" value="Задание 6" style="edgeStyle=orthogonalEdgeStyle;rounded=0;orthogonalLoop=1;jettySize=auto;html=1;endArrow=block;endFill=0;" edge="1" parent="WIyWlLk6GJQsqaUBKTNV-1" source="TEBMtnwVVKYRT9nspLiI-129" target="TEBMtnwVVKYRT9nspLiI-140">
          <mxGeometry relative="1" as="geometry" />
        </mxCell>
        <mxCell id="TEBMtnwVVKYRT9nspLiI-129" value="Вводим 2 буквы и номер буквы" style="shape=parallelogram;perimeter=parallelogramPerimeter;whiteSpace=wrap;html=1;fixedSize=1;" vertex="1" parent="WIyWlLk6GJQsqaUBKTNV-1">
          <mxGeometry x="70" y="1290" width="210" height="60" as="geometry" />
        </mxCell>
        <mxCell id="TEBMtnwVVKYRT9nspLiI-130" value="Конец задания" style="rounded=1;whiteSpace=wrap;html=1;" vertex="1" parent="WIyWlLk6GJQsqaUBKTNV-1">
          <mxGeometry x="405" y="1600" width="120" height="60" as="geometry" />
        </mxCell>
        <mxCell id="TEBMtnwVVKYRT9nspLiI-137" style="edgeStyle=orthogonalEdgeStyle;rounded=0;orthogonalLoop=1;jettySize=auto;html=1;entryX=0;entryY=0.5;entryDx=0;entryDy=0;endArrow=block;endFill=0;" edge="1" parent="WIyWlLk6GJQsqaUBKTNV-1" source="TEBMtnwVVKYRT9nspLiI-135" target="TEBMtnwVVKYRT9nspLiI-130">
          <mxGeometry relative="1" as="geometry" />
        </mxCell>
        <mxCell id="TEBMtnwVVKYRT9nspLiI-135" value="Выводим букву под этим номером" style="shape=parallelogram;perimeter=parallelogramPerimeter;whiteSpace=wrap;html=1;fixedSize=1;" vertex="1" parent="WIyWlLk6GJQsqaUBKTNV-1">
          <mxGeometry x="39" y="1530" width="270" height="60" as="geometry" />
        </mxCell>
        <mxCell id="TEBMtnwVVKYRT9nspLiI-144" value="" style="edgeStyle=orthogonalEdgeStyle;rounded=0;orthogonalLoop=1;jettySize=auto;html=1;endArrow=block;endFill=0;" edge="1" parent="WIyWlLk6GJQsqaUBKTNV-1" source="TEBMtnwVVKYRT9nspLiI-138" target="TEBMtnwVVKYRT9nspLiI-143">
          <mxGeometry relative="1" as="geometry" />
        </mxCell>
        <mxCell id="TEBMtnwVVKYRT9nspLiI-138" value="Считаем позицию этих букв. Отнимаем 96 для корректного отображения номера" style="whiteSpace=wrap;html=1;" vertex="1" parent="WIyWlLk6GJQsqaUBKTNV-1">
          <mxGeometry x="405" y="1290" width="245" height="60" as="geometry" />
        </mxCell>
        <mxCell id="TEBMtnwVVKYRT9nspLiI-142" style="edgeStyle=orthogonalEdgeStyle;rounded=0;orthogonalLoop=1;jettySize=auto;html=1;endArrow=block;endFill=0;" edge="1" parent="WIyWlLk6GJQsqaUBKTNV-1" source="TEBMtnwVVKYRT9nspLiI-140" target="TEBMtnwVVKYRT9nspLiI-135">
          <mxGeometry relative="1" as="geometry" />
        </mxCell>
        <mxCell id="TEBMtnwVVKYRT9nspLiI-140" value="Находим букву под этим номером (Номер + 96 для Аски)" style="whiteSpace=wrap;html=1;" vertex="1" parent="WIyWlLk6GJQsqaUBKTNV-1">
          <mxGeometry x="61.5" y="1400" width="225" height="60" as="geometry" />
        </mxCell>
        <mxCell id="TEBMtnwVVKYRT9nspLiI-146" value="" style="edgeStyle=orthogonalEdgeStyle;rounded=0;orthogonalLoop=1;jettySize=auto;html=1;endArrow=block;endFill=0;" edge="1" parent="WIyWlLk6GJQsqaUBKTNV-1" source="TEBMtnwVVKYRT9nspLiI-143" target="TEBMtnwVVKYRT9nspLiI-145">
          <mxGeometry relative="1" as="geometry" />
        </mxCell>
        <mxCell id="TEBMtnwVVKYRT9nspLiI-143" value="Считаем дистанцию между буквами" style="whiteSpace=wrap;html=1;" vertex="1" parent="WIyWlLk6GJQsqaUBKTNV-1">
          <mxGeometry x="405" y="1390" width="245" height="60" as="geometry" />
        </mxCell>
        <mxCell id="TEBMtnwVVKYRT9nspLiI-147" style="edgeStyle=orthogonalEdgeStyle;rounded=0;orthogonalLoop=1;jettySize=auto;html=1;entryX=1;entryY=0.5;entryDx=0;entryDy=0;endArrow=block;endFill=0;" edge="1" parent="WIyWlLk6GJQsqaUBKTNV-1" source="TEBMtnwVVKYRT9nspLiI-145" target="TEBMtnwVVKYRT9nspLiI-130">
          <mxGeometry relative="1" as="geometry" />
        </mxCell>
        <mxCell id="TEBMtnwVVKYRT9nspLiI-145" value="Выводим номера букв и дистанцию" style="shape=parallelogram;perimeter=parallelogramPerimeter;whiteSpace=wrap;html=1;fixedSize=1;" vertex="1" parent="WIyWlLk6GJQsqaUBKTNV-1">
          <mxGeometry x="467.5" y="1490" width="262.5" height="60" as="geometry" />
        </mxCell>
      </root>
    </mxGraphModel>
  </diagram>
</mxfile>
